<svg xmlns="http://www.w3.org/2000/svg" xmlns:xlink="http://www.w3.org/1999/xlink" width="500" zoomAndPan="magnify" viewBox="0 0 375 374.999991" height="500" preserveAspectRatio="xMidYMid meet" version="1.0"><defs><g/><clipPath id="6d79fda26b"><path d="M 114 86.683594 L 262.101562 86.683594 L 262.101562 223.183594 L 114 223.183594 Z M 114 86.683594 " clip-rule="nonzero"/></clipPath><clipPath id="20bc128d11"><path d="M 248 204 L 258.328125 204 L 258.328125 215 L 248 215 Z M 248 204 " clip-rule="nonzero"/></clipPath><clipPath id="ca0d27a78f"><path d="M 142.078125 231 L 153 231 L 153 242 L 142.078125 242 Z M 142.078125 231 " clip-rule="nonzero"/></clipPath></defs><g clip-path="url(#6d79fda26b)"><path fill="#004aad" d="M 260.414062 158.304688 C 256.941406 153.226562 249.472656 151.976562 243.992188 151.800781 C 246.316406 151.328125 248.710938 151.183594 249.957031 151.183594 L 252.714844 151.179688 L 250.941406 149.074219 C 243.519531 140.253906 226.390625 142.625 225.640625 142.734375 C 209.929688 145.289062 197.089844 138.378906 196.960938 138.308594 L 191.863281 135.503906 L 195.304688 140.195312 C 206.527344 155.480469 208.875 171.328125 202.28125 187.300781 C 201.28125 189.722656 200.140625 191.964844 198.957031 194 C 202.726562 184.40625 203.8125 174.238281 202.015625 164.304688 C 200.515625 156 197.09375 148.074219 191.847656 140.75 C 186.398438 133.140625 179.113281 126.378906 170.195312 120.660156 L 169.96875 120.515625 L 169.898438 120.503906 C 167.097656 118.960938 130.585938 96.441406 116.496094 87.730469 L 114.796875 86.683594 L 114.542969 88.664062 C 112.875 101.777344 116.417969 112.726562 125.378906 122.128906 C 133.191406 130.324219 144.019531 136.320312 154.488281 142.121094 C 168.339844 149.792969 181.519531 157.097656 185.890625 168.519531 C 178.59375 160.511719 171.640625 157.445312 162.507812 153.421875 C 152.199219 148.875 139.371094 143.222656 120.054688 127.777344 L 117.992188 126.128906 L 117.964844 128.765625 C 117.820312 142.304688 121.550781 152.679688 129.371094 160.476562 C 136.097656 167.175781 144.675781 170.847656 152.25 174.089844 C 157.128906 176.179688 161.738281 178.152344 164.859375 180.589844 C 168.164062 183.167969 169.96875 186.480469 170.222656 190.425781 C 171.0625 203.414062 155.421875 219.421875 155.261719 219.582031 L 151.703125 223.1875 L 156.550781 221.710938 C 168.5 218.078125 176.613281 210.210938 181.316406 204.25 C 183.5625 201.40625 185.253906 198.742188 186.453125 196.632812 C 186.699219 196.675781 186.949219 196.699219 187.210938 196.699219 C 189.773438 196.699219 191.851562 194.625 191.851562 192.0625 C 191.851562 189.5 189.773438 187.425781 187.210938 187.425781 C 184.648438 187.425781 182.570312 189.5 182.570312 192.0625 C 182.570312 193.4375 183.171875 194.667969 184.121094 195.519531 C 182.96875 197.53125 181.359375 200.058594 179.25 202.722656 C 175.441406 207.535156 169.292969 213.65625 160.578125 217.484375 C 165.410156 211.683594 173.441406 200.417969 172.789062 190.265625 C 172.484375 185.550781 170.351562 181.617188 166.441406 178.5625 C 163.058594 175.921875 158.296875 173.882812 153.261719 171.726562 C 139.007812 165.625 121.375 158.082031 120.5625 131.449219 C 138.96875 145.851562 151.40625 151.332031 161.472656 155.769531 C 171.75 160.296875 179.171875 163.570312 187.472656 174.433594 L 190.371094 178.222656 L 189.769531 173.492188 C 187.753906 157.609375 172.203125 148.996094 155.734375 139.871094 C 135.523438 128.675781 114.640625 117.105469 116.882812 90.988281 C 120.917969 93.480469 131.378906 99.941406 141.777344 106.339844 C 162.960938 119.378906 167.605469 122.179688 168.8125 122.808594 L 168.808594 122.816406 C 185.65625 133.628906 196.554688 148.523438 199.488281 164.757812 C 202.113281 179.261719 198.265625 194.320312 188.652344 207.15625 L 181.03125 217.335938 L 190.535156 208.882812 C 190.894531 208.5625 199.429688 200.886719 204.621094 188.367188 C 207.683594 180.984375 208.925781 173.457031 208.308594 166 C 207.648438 158.015625 204.84375 150.109375 199.964844 142.449219 C 205.222656 144.453125 214.847656 147.089844 226.03125 145.269531 C 226.183594 145.246094 239.511719 143.398438 246.871094 148.773438 C 243.671875 149.078125 238.914062 149.953125 236.6875 152.46875 L 234.433594 155.023438 L 237.8125 154.59375 C 237.949219 154.578125 249.472656 153.179688 255.746094 157.308594 C 249.308594 156.757812 244.023438 157.472656 239.332031 159.503906 C 233.371094 162.082031 228.535156 166.738281 224.632812 173.675781 C 224.484375 173.664062 224.335938 173.652344 224.1875 173.652344 C 221.625 173.652344 219.546875 175.730469 219.546875 178.292969 C 219.546875 180.851562 221.625 182.929688 224.1875 182.929688 C 226.75 182.929688 228.828125 180.851562 228.828125 178.292969 C 228.828125 176.808594 228.128906 175.492188 227.042969 174.640625 C 235.878906 159.210938 248.148438 158.652344 259.164062 160.296875 L 262.074219 160.734375 Z M 260.414062 158.304688 " fill-opacity="1" fill-rule="nonzero"/></g><g clip-path="url(#20bc128d11)"><path fill="#004aad" d="M 258.328125 209.902344 C 258.328125 210.234375 258.292969 210.5625 258.230469 210.890625 C 258.164062 211.214844 258.066406 211.53125 257.941406 211.835938 C 257.8125 212.144531 257.65625 212.4375 257.46875 212.710938 C 257.285156 212.988281 257.074219 213.242188 256.835938 213.480469 C 256.601562 213.714844 256.34375 213.921875 256.066406 214.109375 C 255.789062 214.292969 255.496094 214.449219 255.1875 214.574219 C 254.878906 214.703125 254.558594 214.796875 254.230469 214.863281 C 253.902344 214.929688 253.574219 214.960938 253.238281 214.960938 C 252.90625 214.960938 252.574219 214.929688 252.246094 214.863281 C 251.917969 214.796875 251.601562 214.703125 251.292969 214.574219 C 250.980469 214.449219 250.6875 214.292969 250.410156 214.109375 C 250.132812 213.921875 249.875 213.714844 249.640625 213.480469 C 249.402344 213.242188 249.191406 212.988281 249.007812 212.710938 C 248.820312 212.4375 248.664062 212.144531 248.535156 211.835938 C 248.410156 211.53125 248.3125 211.214844 248.246094 210.890625 C 248.183594 210.5625 248.148438 210.234375 248.148438 209.902344 C 248.148438 209.570312 248.183594 209.242188 248.246094 208.914062 C 248.3125 208.589844 248.410156 208.273438 248.535156 207.964844 C 248.664062 207.660156 248.820312 207.367188 249.007812 207.089844 C 249.191406 206.816406 249.402344 206.558594 249.640625 206.324219 C 249.875 206.089844 250.132812 205.878906 250.410156 205.695312 C 250.6875 205.511719 250.980469 205.355469 251.292969 205.230469 C 251.601562 205.101562 251.917969 205.003906 252.246094 204.941406 C 252.574219 204.875 252.90625 204.84375 253.238281 204.84375 C 253.574219 204.84375 253.902344 204.875 254.230469 204.941406 C 254.558594 205.003906 254.878906 205.101562 255.1875 205.230469 C 255.496094 205.355469 255.789062 205.511719 256.066406 205.695312 C 256.34375 205.878906 256.601562 206.089844 256.835938 206.324219 C 257.074219 206.558594 257.285156 206.816406 257.46875 207.089844 C 257.65625 207.367188 257.8125 207.660156 257.941406 207.964844 C 258.066406 208.273438 258.164062 208.589844 258.230469 208.914062 C 258.292969 209.242188 258.328125 209.570312 258.328125 209.902344 Z M 258.328125 209.902344 " fill-opacity="1" fill-rule="nonzero"/></g><g clip-path="url(#ca0d27a78f)"><path fill="#004aad" d="M 152.253906 236.386719 C 152.253906 236.71875 152.222656 237.050781 152.15625 237.375 C 152.089844 237.699219 151.996094 238.015625 151.867188 238.324219 C 151.738281 238.628906 151.582031 238.921875 151.398438 239.199219 C 151.210938 239.476562 151 239.730469 150.765625 239.964844 C 150.527344 240.199219 150.269531 240.410156 149.992188 240.59375 C 149.714844 240.777344 149.421875 240.933594 149.113281 241.0625 C 148.804688 241.1875 148.488281 241.285156 148.160156 241.347656 C 147.832031 241.414062 147.5 241.445312 147.164062 241.445312 C 146.832031 241.445312 146.5 241.414062 146.171875 241.347656 C 145.84375 241.285156 145.527344 241.1875 145.21875 241.0625 C 144.910156 240.933594 144.617188 240.777344 144.339844 240.59375 C 144.0625 240.410156 143.804688 240.199219 143.566406 239.964844 C 143.332031 239.730469 143.121094 239.476562 142.933594 239.199219 C 142.75 238.921875 142.59375 238.628906 142.464844 238.324219 C 142.335938 238.015625 142.238281 237.699219 142.175781 237.375 C 142.109375 237.050781 142.078125 236.71875 142.078125 236.386719 C 142.078125 236.054688 142.109375 235.726562 142.175781 235.402344 C 142.238281 235.074219 142.335938 234.757812 142.464844 234.453125 C 142.59375 234.144531 142.75 233.855469 142.933594 233.578125 C 143.121094 233.300781 143.332031 233.046875 143.566406 232.8125 C 143.804688 232.578125 144.0625 232.367188 144.339844 232.183594 C 144.617188 231.996094 144.910156 231.84375 145.21875 231.714844 C 145.527344 231.585938 145.84375 231.492188 146.171875 231.425781 C 146.5 231.363281 146.832031 231.328125 147.164062 231.328125 C 147.5 231.328125 147.832031 231.363281 148.160156 231.425781 C 148.488281 231.492188 148.804688 231.585938 149.113281 231.714844 C 149.421875 231.84375 149.714844 231.996094 149.992188 232.183594 C 150.269531 232.367188 150.527344 232.578125 150.765625 232.8125 C 151 233.046875 151.210938 233.300781 151.398438 233.578125 C 151.582031 233.855469 151.738281 234.144531 151.867188 234.453125 C 151.996094 234.757812 152.089844 235.074219 152.15625 235.402344 C 152.222656 235.726562 152.253906 236.054688 152.253906 236.386719 Z M 152.253906 236.386719 " fill-opacity="1" fill-rule="nonzero"/></g><path fill="#004aad" d="M 212.054688 205.125 C 203.203125 213.921875 194.355469 222.722656 185.503906 231.519531 C 184.242188 232.773438 182.976562 234.03125 181.710938 235.289062 C 182.089844 235.132812 182.472656 234.972656 182.820312 234.816406 C 172.417969 234.816406 162.019531 234.816406 151.621094 234.816406 C 150.136719 234.816406 148.652344 234.816406 147.199219 234.816406 C 145.175781 234.816406 145.175781 237.960938 147.199219 237.960938 C 158.480469 237.960938 169.765625 237.960938 181.046875 237.960938 C 182.25 237.960938 183.261719 238.117188 184.210938 237.238281 C 185.566406 235.949219 186.863281 234.597656 188.191406 233.277344 C 193.21875 228.28125 198.273438 223.253906 203.300781 218.257812 C 206.964844 214.613281 210.632812 210.96875 214.265625 207.355469 C 215.722656 205.910156 213.476562 203.679688 212.054688 205.125 Z M 212.054688 205.125 " fill-opacity="1" fill-rule="nonzero"/><path fill="#004aad" d="M 189.582031 241.164062 C 198.433594 232.367188 207.28125 223.570312 216.132812 214.773438 C 217.394531 213.515625 218.660156 212.257812 219.925781 211 C 219.546875 211.160156 219.167969 211.316406 218.820312 211.472656 C 229.21875 211.472656 239.617188 211.472656 250.015625 211.472656 C 251.5 211.472656 252.984375 211.472656 254.441406 211.472656 C 256.460938 211.472656 256.460938 208.332031 254.441406 208.332031 C 243.15625 208.332031 231.871094 208.332031 220.589844 208.332031 C 219.386719 208.332031 218.375 208.175781 217.429688 209.054688 C 216.070312 210.34375 214.773438 211.691406 213.445312 213.011719 C 208.421875 218.007812 203.363281 223.035156 198.335938 228.03125 C 194.671875 231.675781 191.003906 235.320312 187.371094 238.933594 C 185.914062 240.378906 188.160156 242.578125 189.582031 241.164062 Z M 189.582031 241.164062 " fill-opacity="1" fill-rule="nonzero"/><g fill="#004aad" fill-opacity="1"><g transform="translate(64.931991, 265.523083)"><g><path d="M 4.730469 -12.09375 L 5.796875 -13.09375 C 5.996094 -13.292969 6.128906 -13.359375 6.296875 -13.359375 L 21.589844 -13.359375 C 21.855469 -13.359375 22.085938 -13.59375 22.085938 -13.859375 L 22.085938 -16.15625 C 22.085938 -16.425781 21.855469 -16.65625 21.589844 -16.65625 L 5.296875 -16.65625 C 4.898438 -16.65625 4.628906 -16.558594 4.332031 -16.257812 L 1.398438 -13.359375 C 1.199219 -13.160156 1 -12.828125 1 -12.492188 L 1 -4.230469 C 1 -3.796875 1.132812 -3.5 1.398438 -3.230469 L 4.332031 -0.367188 C 4.5625 -0.132812 4.863281 0 5.195312 0 L 21.589844 0 C 21.855469 0 22.085938 -0.234375 22.085938 -0.5 L 22.085938 -2.730469 C 22.085938 -3 21.855469 -3.230469 21.589844 -3.230469 L 6.328125 -3.230469 C 6.097656 -3.230469 5.929688 -3.296875 5.761719 -3.464844 L 4.597656 -4.730469 C 4.53125 -4.832031 4.496094 -4.929688 4.496094 -5.0625 L 4.496094 -6.863281 L 19.957031 -6.863281 C 20.222656 -6.863281 20.457031 -7.097656 20.457031 -7.363281 L 20.457031 -9.660156 C 20.457031 -9.929688 20.222656 -10.160156 19.957031 -10.160156 L 4.496094 -10.160156 L 4.496094 -11.527344 C 4.496094 -11.761719 4.5625 -11.925781 4.730469 -12.09375 Z M 4.730469 -12.09375 "/></g></g></g><g fill="#004aad" fill-opacity="1"><g transform="translate(88.012101, 265.523083)"><g><path d="M 21.886719 -13.257812 L 18.957031 -16.257812 C 18.691406 -16.523438 18.390625 -16.65625 17.957031 -16.65625 L 5.296875 -16.65625 C 4.863281 -16.65625 4.5625 -16.523438 4.296875 -16.257812 L 1.367188 -13.257812 C 1.132812 -13.027344 1 -12.726562 1 -12.394531 L 1 -0.5 C 1 -0.234375 1.234375 0 1.5 0 L 3.730469 0 C 3.996094 0 4.230469 -0.234375 4.230469 -0.5 L 4.230469 -5.464844 L 19.023438 -5.464844 L 19.023438 -0.5 C 19.023438 -0.234375 19.257812 0 19.523438 0 L 21.753906 0 C 22.019531 0 22.253906 -0.234375 22.253906 -0.5 L 22.253906 -12.394531 C 22.253906 -12.726562 22.121094 -13.027344 21.886719 -13.257812 Z M 4.230469 -8.363281 L 4.230469 -11.527344 C 4.230469 -11.761719 4.296875 -11.925781 4.464844 -12.09375 L 5.53125 -13.09375 L 5.730469 -13.257812 C 5.796875 -13.324219 5.898438 -13.359375 6.0625 -13.359375 L 17.191406 -13.359375 C 17.324219 -13.359375 17.421875 -13.324219 17.523438 -13.257812 L 17.722656 -13.09375 L 18.789062 -12.09375 C 18.957031 -11.925781 19.023438 -11.761719 19.023438 -11.527344 L 19.023438 -8.363281 Z M 4.230469 -8.363281 "/></g></g></g><g fill="#004aad" fill-opacity="1"><g transform="translate(111.258735, 265.523083)"><g><path d="M 19.523438 -9.859375 L 21.753906 -9.859375 C 22.019531 -9.859375 22.253906 -10.09375 22.253906 -10.359375 L 22.253906 -12.558594 C 22.253906 -12.894531 22.085938 -13.191406 21.886719 -13.425781 L 19.121094 -16.257812 C 18.855469 -16.523438 18.554688 -16.65625 18.125 -16.65625 L 5.363281 -16.65625 C 4.964844 -16.65625 4.699219 -16.558594 4.398438 -16.257812 L 1.398438 -13.257812 C 1.199219 -13.058594 1 -12.726562 1 -12.394531 L 1 -4.296875 C 1 -3.863281 1.132812 -3.566406 1.398438 -3.296875 L 4.398438 -0.367188 C 4.628906 -0.132812 4.929688 0 5.265625 0 L 21.753906 0 C 22.019531 0 22.253906 -0.234375 22.253906 -0.5 L 22.253906 -7.628906 C 22.253906 -7.894531 22.019531 -8.128906 21.753906 -8.128906 L 7.960938 -8.128906 C 7.695312 -8.128906 7.460938 -7.894531 7.460938 -7.628906 L 7.460938 -5.332031 C 7.460938 -5.0625 7.695312 -4.832031 7.960938 -4.832031 L 18.957031 -4.832031 L 18.957031 -3.230469 L 6.328125 -3.230469 C 6.097656 -3.230469 5.929688 -3.296875 5.761719 -3.464844 L 4.765625 -4.53125 L 4.597656 -4.730469 C 4.53125 -4.832031 4.496094 -4.929688 4.496094 -5.0625 L 4.496094 -11.527344 C 4.496094 -11.761719 4.5625 -11.925781 4.730469 -12.09375 L 5.796875 -13.09375 C 5.996094 -13.292969 6.128906 -13.359375 6.296875 -13.359375 L 17.289062 -13.359375 C 17.523438 -13.359375 17.65625 -13.257812 17.824219 -13.09375 L 18.789062 -12.226562 C 18.988281 -12.058594 19.023438 -11.894531 19.023438 -11.660156 L 19.023438 -10.359375 C 19.023438 -10.09375 19.257812 -9.859375 19.523438 -9.859375 Z M 19.523438 -9.859375 "/></g></g></g><g fill="#004aad" fill-opacity="1"><g transform="translate(134.505369, 265.523083)"><g><path d="M 1 -16.15625 L 1 -4.265625 C 1 -3.929688 1.199219 -3.597656 1.398438 -3.398438 L 4.398438 -0.398438 C 4.699219 -0.101562 4.964844 0 5.363281 0 L 21.222656 0 C 21.488281 0 21.722656 -0.234375 21.722656 -0.5 L 21.722656 -2.796875 C 21.722656 -3.066406 21.488281 -3.296875 21.222656 -3.296875 L 6.5625 -3.296875 C 6.394531 -3.296875 6.261719 -3.363281 6.0625 -3.566406 L 4.730469 -4.832031 C 4.5625 -4.996094 4.496094 -5.164062 4.496094 -5.398438 L 4.496094 -16.15625 C 4.496094 -16.425781 4.265625 -16.65625 3.996094 -16.65625 L 1.5 -16.65625 C 1.234375 -16.65625 1 -16.425781 1 -16.15625 Z M 1 -16.15625 "/></g></g></g><g fill="#004aad" fill-opacity="1"><g transform="translate(157.219132, 265.523083)"><g><path d="M 4.730469 -12.09375 L 5.796875 -13.09375 C 5.996094 -13.292969 6.128906 -13.359375 6.296875 -13.359375 L 21.589844 -13.359375 C 21.855469 -13.359375 22.085938 -13.59375 22.085938 -13.859375 L 22.085938 -16.15625 C 22.085938 -16.425781 21.855469 -16.65625 21.589844 -16.65625 L 5.296875 -16.65625 C 4.898438 -16.65625 4.628906 -16.558594 4.332031 -16.257812 L 1.398438 -13.359375 C 1.199219 -13.160156 1 -12.828125 1 -12.492188 L 1 -4.230469 C 1 -3.796875 1.132812 -3.5 1.398438 -3.230469 L 4.332031 -0.367188 C 4.5625 -0.132812 4.863281 0 5.195312 0 L 21.589844 0 C 21.855469 0 22.085938 -0.234375 22.085938 -0.5 L 22.085938 -2.730469 C 22.085938 -3 21.855469 -3.230469 21.589844 -3.230469 L 6.328125 -3.230469 C 6.097656 -3.230469 5.929688 -3.296875 5.761719 -3.464844 L 4.597656 -4.730469 C 4.53125 -4.832031 4.496094 -4.929688 4.496094 -5.0625 L 4.496094 -6.863281 L 19.957031 -6.863281 C 20.222656 -6.863281 20.457031 -7.097656 20.457031 -7.363281 L 20.457031 -9.660156 C 20.457031 -9.929688 20.222656 -10.160156 19.957031 -10.160156 L 4.496094 -10.160156 L 4.496094 -11.527344 C 4.496094 -11.761719 4.5625 -11.925781 4.730469 -12.09375 Z M 4.730469 -12.09375 "/></g></g></g><g fill="#004aad" fill-opacity="1"><g transform="translate(180.299243, 265.523083)"><g/></g></g><g fill="#004aad" fill-opacity="1"><g transform="translate(188.958449, 265.523083)"><g><path d="M 1 -8.996094 L 1 -6.695312 C 1 -6.429688 1.234375 -6.195312 1.5 -6.195312 L 10.792969 -6.195312 C 11.0625 -6.195312 11.292969 -6.429688 11.292969 -6.695312 L 11.292969 -8.996094 C 11.292969 -9.261719 11.0625 -9.496094 10.792969 -9.496094 L 1.5 -9.496094 C 1.234375 -9.496094 1 -9.261719 1 -8.996094 Z M 1 -8.996094 "/></g></g></g><g fill="#004aad" fill-opacity="1"><g transform="translate(201.247857, 265.523083)"><g/></g></g><g fill="#004aad" fill-opacity="1"><g transform="translate(209.907063, 265.523083)"><g><path d="M 25.820312 -16.65625 L 1.5 -16.65625 C 1.234375 -16.65625 1 -16.425781 1 -16.15625 L 1 -13.660156 C 1 -13.394531 1.234375 -13.160156 1.5 -13.160156 L 11.925781 -13.160156 L 11.925781 -0.5 C 11.925781 -0.234375 12.160156 0 12.425781 0 L 14.925781 0 C 15.191406 0 15.425781 -0.234375 15.425781 -0.5 L 15.425781 -13.160156 L 25.820312 -13.160156 C 26.085938 -13.160156 26.320312 -13.394531 26.320312 -13.660156 L 26.320312 -16.15625 C 26.320312 -16.425781 26.085938 -16.65625 25.820312 -16.65625 Z M 25.820312 -16.65625 "/></g></g></g><g fill="#004aad" fill-opacity="1"><g transform="translate(237.216865, 265.523083)"><g><path d="M 4.730469 -12.09375 L 5.796875 -13.09375 C 5.996094 -13.292969 6.128906 -13.359375 6.296875 -13.359375 L 21.589844 -13.359375 C 21.855469 -13.359375 22.085938 -13.59375 22.085938 -13.859375 L 22.085938 -16.15625 C 22.085938 -16.425781 21.855469 -16.65625 21.589844 -16.65625 L 5.296875 -16.65625 C 4.898438 -16.65625 4.628906 -16.558594 4.332031 -16.257812 L 1.398438 -13.359375 C 1.199219 -13.160156 1 -12.828125 1 -12.492188 L 1 -4.230469 C 1 -3.796875 1.132812 -3.5 1.398438 -3.230469 L 4.332031 -0.367188 C 4.5625 -0.132812 4.863281 0 5.195312 0 L 21.589844 0 C 21.855469 0 22.085938 -0.234375 22.085938 -0.5 L 22.085938 -2.730469 C 22.085938 -3 21.855469 -3.230469 21.589844 -3.230469 L 6.328125 -3.230469 C 6.097656 -3.230469 5.929688 -3.296875 5.761719 -3.464844 L 4.597656 -4.730469 C 4.53125 -4.832031 4.496094 -4.929688 4.496094 -5.0625 L 4.496094 -6.863281 L 19.957031 -6.863281 C 20.222656 -6.863281 20.457031 -7.097656 20.457031 -7.363281 L 20.457031 -9.660156 C 20.457031 -9.929688 20.222656 -10.160156 19.957031 -10.160156 L 4.496094 -10.160156 L 4.496094 -11.527344 C 4.496094 -11.761719 4.5625 -11.925781 4.730469 -12.09375 Z M 4.730469 -12.09375 "/></g></g></g><g fill="#004aad" fill-opacity="1"><g transform="translate(260.296975, 265.523083)"><g><path d="M 19.523438 -9.960938 L 21.753906 -9.960938 C 22.019531 -9.960938 22.253906 -10.195312 22.253906 -10.460938 L 22.253906 -12.492188 C 22.253906 -12.828125 22.121094 -13.125 21.886719 -13.359375 L 18.957031 -16.359375 C 18.691406 -16.625 18.390625 -16.757812 17.957031 -16.757812 L 5.363281 -16.757812 C 4.964844 -16.757812 4.699219 -16.65625 4.398438 -16.359375 L 1.398438 -13.359375 C 1.199219 -13.160156 1 -12.828125 1 -12.492188 L 1 -4.199219 C 1 -3.863281 1.199219 -3.53125 1.398438 -3.332031 L 4.398438 -0.332031 C 4.699219 -0.0351562 4.964844 0.101562 5.363281 0.101562 L 17.957031 0.101562 C 18.390625 0.101562 18.691406 -0.0664062 18.957031 -0.332031 L 21.886719 -3.332031 C 22.121094 -3.566406 22.253906 -3.863281 22.253906 -4.199219 L 22.253906 -6.230469 C 22.253906 -6.496094 22.019531 -6.730469 21.753906 -6.730469 L 19.523438 -6.730469 C 19.257812 -6.730469 19.023438 -6.496094 19.023438 -6.230469 L 19.023438 -5.0625 C 19.023438 -4.832031 18.988281 -4.664062 18.789062 -4.496094 L 17.722656 -3.5 C 17.558594 -3.332031 17.421875 -3.230469 17.191406 -3.230469 L 6.296875 -3.230469 C 6.128906 -3.230469 5.996094 -3.296875 5.796875 -3.5 L 4.730469 -4.496094 C 4.5625 -4.664062 4.496094 -4.832031 4.496094 -5.0625 L 4.496094 -11.625 C 4.496094 -11.859375 4.5625 -12.027344 4.730469 -12.191406 L 5.796875 -13.191406 C 5.996094 -13.394531 6.128906 -13.460938 6.296875 -13.460938 L 17.191406 -13.460938 C 17.421875 -13.460938 17.558594 -13.359375 17.722656 -13.191406 L 18.789062 -12.191406 C 18.988281 -12.027344 19.023438 -11.859375 19.023438 -11.625 L 19.023438 -10.460938 C 19.023438 -10.195312 19.257812 -9.960938 19.523438 -9.960938 Z M 19.523438 -9.960938 "/></g></g></g><g fill="#004aad" fill-opacity="1"><g transform="translate(283.543609, 265.523083)"><g><path d="M 21.753906 -16.65625 L 19.257812 -16.65625 C 18.988281 -16.65625 18.757812 -16.425781 18.757812 -16.15625 L 18.757812 -10.195312 L 4.496094 -10.195312 L 4.496094 -16.15625 C 4.496094 -16.425781 4.265625 -16.65625 3.996094 -16.65625 L 1.5 -16.65625 C 1.234375 -16.65625 1 -16.425781 1 -16.15625 L 1 -0.5 C 1 -0.234375 1.234375 0 1.5 0 L 3.996094 0 C 4.265625 0 4.496094 -0.234375 4.496094 -0.5 L 4.496094 -6.894531 L 18.757812 -6.894531 L 18.757812 -0.5 C 18.757812 -0.234375 18.988281 0 19.257812 0 L 21.753906 0 C 22.019531 0 22.253906 -0.234375 22.253906 -0.5 L 22.253906 -16.15625 C 22.253906 -16.425781 22.019531 -16.65625 21.753906 -16.65625 Z M 21.753906 -16.65625 "/></g></g></g><g fill="#004aad" fill-opacity="1"><g transform="translate(69.589366, 282.191084)"><g><path d="M 6.777344 -2.960938 L 7.449219 -2.960938 C 7.527344 -2.960938 7.597656 -3.027344 7.597656 -3.109375 L 7.597656 -3.71875 C 7.597656 -3.820312 7.558594 -3.910156 7.488281 -3.980469 L 6.609375 -4.878906 C 6.527344 -4.957031 6.4375 -5 6.308594 -5 L 1.609375 -5 C 1.488281 -5 1.410156 -4.96875 1.320312 -4.878906 L 0.417969 -3.980469 C 0.359375 -3.917969 0.300781 -3.820312 0.300781 -3.71875 L 0.300781 -1.28125 C 0.300781 -1.179688 0.359375 -1.078125 0.417969 -1.019531 L 1.320312 -0.121094 C 1.410156 -0.03125 1.488281 0 1.609375 0 L 6.308594 0 C 6.4375 0 6.527344 -0.0390625 6.609375 -0.121094 L 7.488281 -1.019531 C 7.558594 -1.089844 7.597656 -1.179688 7.597656 -1.28125 L 7.597656 -1.890625 C 7.597656 -1.96875 7.527344 -2.039062 7.449219 -2.039062 L 6.777344 -2.039062 C 6.699219 -2.039062 6.628906 -1.96875 6.628906 -1.890625 L 6.628906 -1.539062 C 6.628906 -1.46875 6.617188 -1.417969 6.558594 -1.371094 L 6.238281 -1.070312 C 6.1875 -1.019531 6.148438 -0.988281 6.078125 -0.988281 L 1.890625 -0.988281 C 1.839844 -0.988281 1.800781 -1.007812 1.738281 -1.070312 L 1.417969 -1.371094 C 1.371094 -1.417969 1.351562 -1.46875 1.351562 -1.539062 L 1.351562 -3.460938 C 1.351562 -3.527344 1.371094 -3.578125 1.417969 -3.628906 L 1.738281 -3.929688 C 1.800781 -3.988281 1.839844 -4.007812 1.890625 -4.007812 L 6.078125 -4.007812 C 6.148438 -4.007812 6.1875 -3.980469 6.238281 -3.929688 L 6.558594 -3.628906 C 6.617188 -3.578125 6.628906 -3.527344 6.628906 -3.460938 L 6.628906 -3.109375 C 6.628906 -3.027344 6.699219 -2.960938 6.777344 -2.960938 Z M 6.777344 -2.960938 "/></g></g></g><g fill="#004aad" fill-opacity="1"><g transform="translate(82.716233, 282.191084)"><g><path d="M 0.300781 -1.28125 C 0.300781 -1.179688 0.339844 -1.089844 0.410156 -1.019531 L 1.289062 -0.121094 C 1.371094 -0.0390625 1.460938 0 1.589844 0 L 6.308594 0 C 6.4375 0 6.527344 -0.0390625 6.609375 -0.121094 L 7.488281 -1.019531 C 7.558594 -1.089844 7.597656 -1.179688 7.597656 -1.28125 L 7.597656 -3.71875 C 7.597656 -3.820312 7.558594 -3.910156 7.488281 -3.980469 L 6.609375 -4.878906 C 6.527344 -4.957031 6.4375 -5 6.308594 -5 L 1.589844 -5 C 1.460938 -5 1.371094 -4.957031 1.289062 -4.878906 L 0.410156 -3.980469 C 0.339844 -3.910156 0.300781 -3.820312 0.300781 -3.71875 Z M 1.269531 -1.539062 L 1.269531 -3.460938 C 1.269531 -3.527344 1.289062 -3.578125 1.339844 -3.628906 L 1.660156 -3.929688 L 1.71875 -3.980469 C 1.738281 -4 1.769531 -4.007812 1.820312 -4.007812 L 6.078125 -4.007812 C 6.117188 -4.007812 6.148438 -4 6.179688 -3.980469 L 6.238281 -3.929688 L 6.558594 -3.628906 C 6.609375 -3.578125 6.628906 -3.527344 6.628906 -3.460938 L 6.628906 -1.539062 C 6.628906 -1.46875 6.609375 -1.417969 6.558594 -1.371094 L 6.238281 -1.070312 L 6.179688 -1.019531 C 6.148438 -1 6.117188 -0.988281 6.078125 -0.988281 L 1.820312 -0.988281 C 1.769531 -0.988281 1.738281 -1 1.71875 -1.019531 L 1.660156 -1.070312 L 1.339844 -1.371094 C 1.289062 -1.417969 1.269531 -1.46875 1.269531 -1.539062 Z M 1.269531 -1.539062 "/></g></g></g><g fill="#004aad" fill-opacity="1"><g transform="translate(95.8431, 282.191084)"><g><path d="M 14.347656 -3.679688 L 13.167969 -4.878906 C 13.097656 -4.957031 12.996094 -5 12.867188 -5 L 8.679688 -5 C 8.546875 -5 8.449219 -4.957031 8.378906 -4.878906 L 7.578125 -4.070312 L 6.777344 -4.878906 C 6.707031 -4.957031 6.609375 -5 6.476562 -5 L 1.890625 -5 C 1.757812 -5 1.660156 -4.957031 1.589844 -4.878906 L 0.410156 -3.679688 C 0.339844 -3.609375 0.300781 -3.519531 0.300781 -3.417969 L 0.300781 -0.148438 C 0.300781 -0.0703125 0.371094 0 0.449219 0 L 1.121094 0 C 1.199219 0 1.269531 -0.0703125 1.269531 -0.148438 L 1.269531 -3.078125 C 1.269531 -3.148438 1.289062 -3.199219 1.339844 -3.25 L 2.050781 -3.980469 C 2.078125 -4 2.109375 -4.007812 2.148438 -4.007812 L 6.25 -4.007812 C 6.289062 -4.007812 6.320312 -4 6.347656 -3.980469 L 7.027344 -3.328125 C 7.058594 -3.308594 7.078125 -3.269531 7.089844 -3.238281 L 7.089844 -0.148438 C 7.089844 -0.0703125 7.160156 0 7.238281 0 L 7.917969 0 C 7.996094 0 8.066406 -0.0703125 8.066406 -0.148438 L 8.066406 -3.238281 C 8.078125 -3.269531 8.097656 -3.308594 8.128906 -3.328125 L 8.808594 -3.980469 C 8.835938 -4 8.867188 -4.007812 8.90625 -4.007812 L 12.605469 -4.007812 C 12.648438 -4.007812 12.675781 -4 12.707031 -3.980469 L 13.417969 -3.25 C 13.464844 -3.199219 13.488281 -3.148438 13.488281 -3.078125 L 13.488281 -0.148438 C 13.488281 -0.0703125 13.554688 0 13.636719 0 L 14.304688 0 C 14.386719 0 14.457031 -0.0703125 14.457031 -0.148438 L 14.457031 -3.417969 C 14.457031 -3.519531 14.417969 -3.609375 14.347656 -3.679688 Z M 14.347656 -3.679688 "/></g></g></g><g fill="#004aad" fill-opacity="1"><g transform="translate(115.827267, 282.191084)"><g><path d="M 7.457031 -4.007812 L 6.558594 -4.890625 C 6.488281 -4.957031 6.398438 -5 6.296875 -5 L 0.449219 -5 C 0.371094 -5 0.300781 -4.929688 0.300781 -4.847656 L 0.300781 -0.179688 C 0.300781 -0.101562 0.371094 -0.03125 0.449219 -0.03125 L 1.140625 -0.03125 C 1.21875 -0.03125 1.289062 -0.101562 1.289062 -0.179688 L 1.289062 -1 L 6.269531 -1 C 6.386719 -1 6.46875 -1.03125 6.558594 -1.121094 L 7.457031 -2.019531 C 7.519531 -2.078125 7.578125 -2.179688 7.578125 -2.28125 L 7.578125 -3.710938 C 7.578125 -3.839844 7.539062 -3.929688 7.457031 -4.007812 Z M 6.527344 -2.539062 C 6.527344 -2.46875 6.507812 -2.417969 6.457031 -2.371094 L 6.136719 -2.070312 C 6.078125 -2.007812 6.039062 -1.988281 5.988281 -1.988281 L 1.289062 -1.988281 L 1.289062 -4.027344 L 5.976562 -4.027344 C 6.046875 -4.027344 6.097656 -4.007812 6.148438 -3.960938 L 6.449219 -3.640625 L 6.5 -3.578125 C 6.519531 -3.550781 6.527344 -3.519531 6.527344 -3.480469 Z M 6.527344 -2.539062 "/></g></g></g><g fill="#004aad" fill-opacity="1"><g transform="translate(128.934141, 282.191084)"><g><path d="M 7.488281 -3.980469 L 6.609375 -4.878906 C 6.527344 -4.957031 6.4375 -5 6.308594 -5 L 1.589844 -5 C 1.460938 -5 1.371094 -4.957031 1.289062 -4.878906 L 0.410156 -3.980469 C 0.339844 -3.910156 0.300781 -3.820312 0.300781 -3.71875 L 0.300781 -0.148438 C 0.300781 -0.0703125 0.371094 0 0.449219 0 L 1.121094 0 C 1.199219 0 1.269531 -0.0703125 1.269531 -0.148438 L 1.269531 -1.640625 L 6.628906 -1.640625 L 6.628906 -0.148438 C 6.628906 -0.0703125 6.699219 0 6.777344 0 L 7.449219 0 C 7.527344 0 7.597656 -0.0703125 7.597656 -0.148438 L 7.597656 -3.71875 C 7.597656 -3.820312 7.558594 -3.910156 7.488281 -3.980469 Z M 1.269531 -2.507812 L 1.269531 -3.460938 C 1.269531 -3.527344 1.289062 -3.578125 1.339844 -3.628906 L 1.660156 -3.929688 L 1.71875 -3.980469 C 1.738281 -4 1.769531 -4.007812 1.820312 -4.007812 L 6.078125 -4.007812 C 6.117188 -4.007812 6.148438 -4 6.179688 -3.980469 L 6.238281 -3.929688 L 6.558594 -3.628906 C 6.609375 -3.578125 6.628906 -3.527344 6.628906 -3.460938 L 6.628906 -2.507812 Z M 1.269531 -2.507812 "/></g></g></g><g fill="#004aad" fill-opacity="1"><g transform="translate(142.061006, 282.191084)"><g><path d="M 2.28125 -5.609375 C 2.28125 -5.558594 2.320312 -5.5 2.378906 -5.5 L 2.828125 -5.5 C 2.890625 -5.5 2.929688 -5.558594 2.929688 -5.609375 L 2.929688 -5.820312 C 2.929688 -5.867188 2.9375 -5.898438 2.988281 -5.9375 L 3.097656 -6.039062 L 4.050781 -5.578125 C 4.148438 -5.527344 4.269531 -5.558594 4.347656 -5.636719 L 4.757812 -6.070312 C 4.808594 -6.117188 4.828125 -6.167969 4.828125 -6.25 L 4.828125 -6.628906 C 4.828125 -6.679688 4.789062 -6.738281 4.730469 -6.738281 L 4.277344 -6.738281 C 4.21875 -6.738281 4.179688 -6.679688 4.179688 -6.628906 L 4.179688 -6.417969 C 4.179688 -6.367188 4.167969 -6.339844 4.117188 -6.296875 L 4.007812 -6.199219 L 3.058594 -6.660156 C 2.960938 -6.707031 2.839844 -6.679688 2.757812 -6.597656 L 2.347656 -6.167969 C 2.300781 -6.117188 2.28125 -6.070312 2.28125 -5.988281 Z M 0.300781 -0.148438 C 0.300781 -0.0703125 0.371094 0 0.449219 0 L 1.121094 0 C 1.199219 0 1.269531 -0.0703125 1.269531 -0.148438 L 1.269531 -4.007812 L 5.527344 -4.007812 C 5.570312 -4.007812 5.597656 -4 5.628906 -3.980469 L 6.558594 -3.078125 C 6.609375 -3.027344 6.628906 -2.980469 6.628906 -2.910156 L 6.628906 -0.148438 C 6.628906 -0.0703125 6.699219 0 6.777344 0 L 7.449219 0 C 7.527344 0 7.597656 -0.0703125 7.597656 -0.148438 L 7.597656 -3.21875 C 7.597656 -3.320312 7.558594 -3.398438 7.488281 -3.480469 L 6.109375 -4.878906 C 6.027344 -4.957031 5.9375 -5 5.808594 -5 L 0.550781 -5 C 0.410156 -5 0.300781 -4.890625 0.300781 -4.75 Z M 0.300781 -0.148438 "/></g></g></g><g fill="#004aad" fill-opacity="1"><g transform="translate(155.18787, 282.191084)"><g><path d="M 0.449219 0 L 1.199219 0 C 1.28125 0 1.351562 -0.0703125 1.351562 -0.148438 L 1.351562 -4.847656 C 1.351562 -4.929688 1.28125 -5 1.199219 -5 L 0.449219 -5 C 0.371094 -5 0.300781 -4.929688 0.300781 -4.847656 L 0.300781 -0.148438 C 0.300781 -0.0703125 0.371094 0 0.449219 0 Z M 0.449219 0 "/></g></g></g><g fill="#004aad" fill-opacity="1"><g transform="translate(162.067199, 282.191084)"><g><path d="M 7.488281 -3.980469 L 6.609375 -4.878906 C 6.527344 -4.957031 6.4375 -5 6.308594 -5 L 1.589844 -5 C 1.460938 -5 1.371094 -4.957031 1.289062 -4.878906 L 0.410156 -3.980469 C 0.339844 -3.910156 0.300781 -3.820312 0.300781 -3.71875 L 0.300781 -0.148438 C 0.300781 -0.0703125 0.371094 0 0.449219 0 L 1.121094 0 C 1.199219 0 1.269531 -0.0703125 1.269531 -0.148438 L 1.269531 -1.640625 L 6.628906 -1.640625 L 6.628906 -0.148438 C 6.628906 -0.0703125 6.699219 0 6.777344 0 L 7.449219 0 C 7.527344 0 7.597656 -0.0703125 7.597656 -0.148438 L 7.597656 -3.71875 C 7.597656 -3.820312 7.558594 -3.910156 7.488281 -3.980469 Z M 1.269531 -2.507812 L 1.269531 -3.460938 C 1.269531 -3.527344 1.289062 -3.578125 1.339844 -3.628906 L 1.660156 -3.929688 L 1.71875 -3.980469 C 1.738281 -4 1.769531 -4.007812 1.820312 -4.007812 L 6.078125 -4.007812 C 6.117188 -4.007812 6.148438 -4 6.179688 -3.980469 L 6.238281 -3.929688 L 6.558594 -3.628906 C 6.609375 -3.578125 6.628906 -3.527344 6.628906 -3.460938 L 6.628906 -2.507812 Z M 1.269531 -2.507812 "/></g></g></g><g fill="#004aad" fill-opacity="1"><g transform="translate(175.194064, 282.191084)"><g/></g></g><g fill="#004aad" fill-opacity="1"><g transform="translate(183.023024, 282.191084)"><g><path d="M 7.476562 -4.007812 L 6.578125 -4.890625 C 6.507812 -4.957031 6.417969 -5 6.320312 -5 L 0.449219 -5 C 0.371094 -5 0.300781 -4.929688 0.300781 -4.847656 L 0.300781 -0.148438 C 0.300781 -0.0703125 0.371094 0 0.449219 0 L 6.289062 0 C 6.410156 0 6.488281 -0.03125 6.578125 -0.121094 L 7.476562 -1.019531 C 7.539062 -1.078125 7.597656 -1.179688 7.597656 -1.28125 L 7.597656 -3.710938 C 7.597656 -3.839844 7.558594 -3.929688 7.476562 -4.007812 Z M 6.546875 -1.539062 C 6.546875 -1.46875 6.527344 -1.417969 6.476562 -1.371094 L 6.160156 -1.070312 C 6.097656 -1.007812 6.058594 -0.988281 6.007812 -0.988281 L 1.28125 -0.988281 L 1.28125 -4.027344 L 6 -4.027344 C 6.070312 -4.027344 6.117188 -4.007812 6.167969 -3.960938 L 6.46875 -3.640625 L 6.519531 -3.578125 C 6.539062 -3.550781 6.546875 -3.519531 6.546875 -3.480469 Z M 6.546875 -1.539062 "/></g></g></g><g fill="#004aad" fill-opacity="1"><g transform="translate(196.149888, 282.191084)"><g><path d="M 1.417969 -3.628906 L 1.738281 -3.929688 C 1.800781 -3.988281 1.839844 -4.007812 1.890625 -4.007812 L 7.449219 -4.007812 C 7.527344 -4.007812 7.597656 -4.078125 7.597656 -4.160156 L 7.597656 -4.847656 C 7.597656 -4.929688 7.527344 -5 7.449219 -5 L 1.609375 -5 C 1.488281 -5 1.410156 -4.96875 1.320312 -4.878906 L 0.417969 -3.980469 C 0.359375 -3.917969 0.300781 -3.820312 0.300781 -3.71875 L 0.300781 -1.289062 C 0.300781 -1.160156 0.339844 -1.070312 0.417969 -0.988281 L 1.320312 -0.109375 C 1.390625 -0.0390625 1.480469 0 1.578125 0 L 7.449219 0 C 7.527344 0 7.597656 -0.0703125 7.597656 -0.148438 L 7.597656 -0.820312 C 7.597656 -0.898438 7.527344 -0.96875 7.449219 -0.96875 L 1.898438 -0.96875 C 1.828125 -0.96875 1.78125 -0.988281 1.730469 -1.039062 L 1.378906 -1.417969 C 1.359375 -1.449219 1.351562 -1.480469 1.351562 -1.519531 L 1.351562 -2.070312 L 6.957031 -2.070312 C 7.039062 -2.070312 7.109375 -2.140625 7.109375 -2.21875 L 7.109375 -2.910156 C 7.109375 -2.988281 7.039062 -3.058594 6.957031 -3.058594 L 1.351562 -3.058594 L 1.351562 -3.460938 C 1.351562 -3.527344 1.371094 -3.578125 1.417969 -3.628906 Z M 1.417969 -3.628906 "/></g></g></g><g fill="#004aad" fill-opacity="1"><g transform="translate(209.276752, 282.191084)"><g/></g></g><g fill="#004aad" fill-opacity="1"><g transform="translate(217.105712, 282.191084)"><g><path d="M 0.300781 -3.121094 C 0.300781 -2.988281 0.339844 -2.898438 0.417969 -2.820312 L 1.121094 -2.140625 C 1.191406 -2.078125 1.28125 -2.03125 1.378906 -2.03125 L 6.199219 -2.03125 C 6.269531 -2.03125 6.320312 -2.007812 6.367188 -1.960938 L 6.519531 -1.78125 C 6.539062 -1.75 6.546875 -1.71875 6.546875 -1.679688 L 6.546875 -1.441406 C 6.546875 -1.371094 6.527344 -1.320312 6.476562 -1.269531 L 6.257812 -1.070312 C 6.199219 -1.019531 6.160156 -0.988281 6.109375 -0.988281 L 0.621094 -0.988281 C 0.539062 -0.988281 0.46875 -0.917969 0.46875 -0.839844 L 0.46875 -0.148438 C 0.46875 -0.0703125 0.539062 0 0.621094 0 L 6.386719 0 C 6.507812 0 6.589844 -0.03125 6.679688 -0.121094 L 7.476562 -0.917969 C 7.539062 -0.980469 7.597656 -1.078125 7.597656 -1.179688 L 7.597656 -2.007812 C 7.597656 -2.140625 7.558594 -2.238281 7.476562 -2.308594 L 6.878906 -2.890625 C 6.808594 -2.949219 6.71875 -3 6.617188 -3 L 1.699219 -3 C 1.628906 -3 1.578125 -3.019531 1.53125 -3.070312 L 1.378906 -3.25 C 1.359375 -3.277344 1.351562 -3.308594 1.351562 -3.347656 L 1.351562 -3.558594 C 1.351562 -3.628906 1.371094 -3.679688 1.417969 -3.730469 L 1.640625 -3.929688 C 1.699219 -3.980469 1.738281 -4.007812 1.789062 -4.007812 L 7.179688 -4.007812 C 7.257812 -4.007812 7.328125 -4.078125 7.328125 -4.160156 L 7.328125 -4.847656 C 7.328125 -4.929688 7.257812 -5 7.179688 -5 L 1.507812 -5 C 1.390625 -5 1.308594 -4.96875 1.21875 -4.878906 L 0.417969 -4.078125 C 0.359375 -4.019531 0.300781 -3.917969 0.300781 -3.820312 Z M 0.300781 -3.121094 "/></g></g></g><g fill="#004aad" fill-opacity="1"><g transform="translate(230.232577, 282.191084)"><g><path d="M 1.417969 -3.628906 L 1.738281 -3.929688 C 1.800781 -3.988281 1.839844 -4.007812 1.890625 -4.007812 L 7.449219 -4.007812 C 7.527344 -4.007812 7.597656 -4.078125 7.597656 -4.160156 L 7.597656 -4.847656 C 7.597656 -4.929688 7.527344 -5 7.449219 -5 L 1.609375 -5 C 1.488281 -5 1.410156 -4.96875 1.320312 -4.878906 L 0.417969 -3.980469 C 0.359375 -3.917969 0.300781 -3.820312 0.300781 -3.71875 L 0.300781 -1.289062 C 0.300781 -1.160156 0.339844 -1.070312 0.417969 -0.988281 L 1.320312 -0.109375 C 1.390625 -0.0390625 1.480469 0 1.578125 0 L 7.449219 0 C 7.527344 0 7.597656 -0.0703125 7.597656 -0.148438 L 7.597656 -0.820312 C 7.597656 -0.898438 7.527344 -0.96875 7.449219 -0.96875 L 1.898438 -0.96875 C 1.828125 -0.96875 1.78125 -0.988281 1.730469 -1.039062 L 1.378906 -1.417969 C 1.359375 -1.449219 1.351562 -1.480469 1.351562 -1.519531 L 1.351562 -2.070312 L 6.957031 -2.070312 C 7.039062 -2.070312 7.109375 -2.140625 7.109375 -2.21875 L 7.109375 -2.910156 C 7.109375 -2.988281 7.039062 -3.058594 6.957031 -3.058594 L 1.351562 -3.058594 L 1.351562 -3.460938 C 1.351562 -3.527344 1.371094 -3.578125 1.417969 -3.628906 Z M 1.417969 -3.628906 "/></g></g></g><g fill="#004aad" fill-opacity="1"><g transform="translate(243.359441, 282.191084)"><g><path d="M 6.777344 -2.960938 L 7.449219 -2.960938 C 7.527344 -2.960938 7.597656 -3.027344 7.597656 -3.109375 L 7.597656 -3.71875 C 7.597656 -3.820312 7.558594 -3.910156 7.488281 -3.980469 L 6.609375 -4.878906 C 6.527344 -4.957031 6.4375 -5 6.308594 -5 L 1.609375 -5 C 1.488281 -5 1.410156 -4.96875 1.320312 -4.878906 L 0.417969 -3.980469 C 0.359375 -3.917969 0.300781 -3.820312 0.300781 -3.71875 L 0.300781 -1.289062 C 0.300781 -1.160156 0.339844 -1.070312 0.417969 -0.988281 L 1.320312 -0.109375 C 1.390625 -0.0390625 1.480469 0 1.578125 0 L 7.449219 0 C 7.527344 0 7.597656 -0.0703125 7.597656 -0.148438 L 7.597656 -2.308594 C 7.597656 -2.390625 7.527344 -2.460938 7.449219 -2.460938 L 2.460938 -2.460938 C 2.378906 -2.460938 2.308594 -2.390625 2.308594 -2.308594 L 2.308594 -1.621094 C 2.308594 -1.539062 2.378906 -1.46875 2.460938 -1.46875 L 6.609375 -1.46875 L 6.609375 -0.96875 L 1.898438 -0.96875 C 1.828125 -0.96875 1.78125 -0.988281 1.730469 -1.039062 L 1.429688 -1.359375 L 1.378906 -1.417969 C 1.359375 -1.449219 1.351562 -1.480469 1.351562 -1.519531 L 1.351562 -3.460938 C 1.351562 -3.527344 1.371094 -3.578125 1.417969 -3.628906 L 1.738281 -3.929688 C 1.800781 -3.988281 1.839844 -4.007812 1.890625 -4.007812 L 6.078125 -4.007812 C 6.148438 -4.007812 6.1875 -3.980469 6.238281 -3.929688 L 6.558594 -3.628906 C 6.617188 -3.578125 6.628906 -3.527344 6.628906 -3.460938 L 6.628906 -3.109375 C 6.628906 -3.027344 6.699219 -2.960938 6.777344 -2.960938 Z M 6.777344 -2.960938 "/></g></g></g><g fill="#004aad" fill-opacity="1"><g transform="translate(256.486306, 282.191084)"><g><path d="M 0.300781 -4.847656 L 0.300781 -1.230469 C 0.300781 -1.128906 0.328125 -1.039062 0.410156 -0.96875 L 1.390625 -0.121094 C 1.480469 -0.0507812 1.558594 0 1.691406 0 L 6.207031 0 C 6.339844 0 6.417969 -0.0507812 6.507812 -0.121094 L 7.488281 -0.96875 C 7.566406 -1.039062 7.597656 -1.128906 7.597656 -1.230469 L 7.597656 -4.847656 C 7.597656 -4.929688 7.527344 -5 7.449219 -5 L 6.777344 -5 C 6.699219 -5 6.628906 -4.929688 6.628906 -4.847656 L 6.628906 -1.640625 C 6.628906 -1.570312 6.609375 -1.519531 6.558594 -1.46875 L 6.078125 -1.019531 C 6.046875 -1 6.019531 -0.988281 5.976562 -0.988281 L 1.917969 -0.988281 C 1.871094 -0.988281 1.839844 -1 1.820312 -1.019531 L 1.339844 -1.46875 C 1.289062 -1.519531 1.269531 -1.570312 1.269531 -1.640625 L 1.269531 -4.847656 C 1.269531 -4.929688 1.199219 -5 1.121094 -5 L 0.449219 -5 C 0.371094 -5 0.300781 -4.929688 0.300781 -4.847656 Z M 0.300781 -4.847656 "/></g></g></g><g fill="#004aad" fill-opacity="1"><g transform="translate(269.61317, 282.191084)"><g><path d="M 7.777344 -4.007812 L 6.878906 -4.890625 C 6.808594 -4.957031 6.71875 -5 6.617188 -5 L 0.449219 -5 C 0.371094 -5 0.300781 -4.929688 0.300781 -4.847656 L 0.300781 -0.148438 C 0.300781 -0.0703125 0.371094 0 0.449219 0 L 1.140625 0 C 1.21875 0 1.289062 -0.0703125 1.289062 -0.148438 L 1.289062 -1.101562 L 5.949219 -1.101562 L 6.566406 -0.0898438 C 6.609375 -0.03125 6.660156 0 6.71875 0 L 7.46875 0 C 7.589844 0 7.648438 -0.109375 7.589844 -0.210938 L 6.929688 -1.269531 L 7.777344 -2.121094 C 7.839844 -2.179688 7.898438 -2.28125 7.898438 -2.378906 L 7.898438 -3.710938 C 7.898438 -3.839844 7.859375 -3.929688 7.777344 -4.007812 Z M 1.289062 -4.027344 L 6.296875 -4.027344 C 6.367188 -4.027344 6.417969 -4.007812 6.46875 -3.960938 L 6.769531 -3.640625 L 6.816406 -3.578125 C 6.839844 -3.550781 6.847656 -3.519531 6.847656 -3.480469 L 6.847656 -2.640625 C 6.847656 -2.570312 6.828125 -2.519531 6.777344 -2.46875 L 6.457031 -2.167969 C 6.398438 -2.109375 6.359375 -2.089844 6.308594 -2.089844 L 1.289062 -2.089844 Z M 1.289062 -4.027344 "/></g></g></g><g fill="#004aad" fill-opacity="1"><g transform="translate(283.039927, 282.191084)"><g><path d="M 0.300781 -1.28125 C 0.300781 -1.179688 0.339844 -1.089844 0.410156 -1.019531 L 1.289062 -0.121094 C 1.371094 -0.0390625 1.460938 0 1.589844 0 L 6.308594 0 C 6.4375 0 6.527344 -0.0390625 6.609375 -0.121094 L 7.488281 -1.019531 C 7.558594 -1.089844 7.597656 -1.179688 7.597656 -1.28125 L 7.597656 -3.71875 C 7.597656 -3.820312 7.558594 -3.910156 7.488281 -3.980469 L 6.609375 -4.878906 C 6.527344 -4.957031 6.4375 -5 6.308594 -5 L 1.589844 -5 C 1.460938 -5 1.371094 -4.957031 1.289062 -4.878906 L 0.410156 -3.980469 C 0.339844 -3.910156 0.300781 -3.820312 0.300781 -3.71875 Z M 1.269531 -1.539062 L 1.269531 -3.460938 C 1.269531 -3.527344 1.289062 -3.578125 1.339844 -3.628906 L 1.660156 -3.929688 L 1.71875 -3.980469 C 1.738281 -4 1.769531 -4.007812 1.820312 -4.007812 L 6.078125 -4.007812 C 6.117188 -4.007812 6.148438 -4 6.179688 -3.980469 L 6.238281 -3.929688 L 6.558594 -3.628906 C 6.609375 -3.578125 6.628906 -3.527344 6.628906 -3.460938 L 6.628906 -1.539062 C 6.628906 -1.46875 6.609375 -1.417969 6.558594 -1.371094 L 6.238281 -1.070312 L 6.179688 -1.019531 C 6.148438 -1 6.117188 -0.988281 6.078125 -0.988281 L 1.820312 -0.988281 C 1.769531 -0.988281 1.738281 -1 1.71875 -1.019531 L 1.660156 -1.070312 L 1.339844 -1.371094 C 1.289062 -1.417969 1.269531 -1.46875 1.269531 -1.539062 Z M 1.269531 -1.539062 "/></g></g></g><g fill="#004aad" fill-opacity="1"><g transform="translate(296.166803, 282.191084)"><g><path d="M 0.300781 -3.121094 C 0.300781 -2.988281 0.339844 -2.898438 0.417969 -2.820312 L 1.121094 -2.140625 C 1.191406 -2.078125 1.28125 -2.03125 1.378906 -2.03125 L 6.199219 -2.03125 C 6.269531 -2.03125 6.320312 -2.007812 6.367188 -1.960938 L 6.519531 -1.78125 C 6.539062 -1.75 6.546875 -1.71875 6.546875 -1.679688 L 6.546875 -1.441406 C 6.546875 -1.371094 6.527344 -1.320312 6.476562 -1.269531 L 6.257812 -1.070312 C 6.199219 -1.019531 6.160156 -0.988281 6.109375 -0.988281 L 0.621094 -0.988281 C 0.539062 -0.988281 0.46875 -0.917969 0.46875 -0.839844 L 0.46875 -0.148438 C 0.46875 -0.0703125 0.539062 0 0.621094 0 L 6.386719 0 C 6.507812 0 6.589844 -0.03125 6.679688 -0.121094 L 7.476562 -0.917969 C 7.539062 -0.980469 7.597656 -1.078125 7.597656 -1.179688 L 7.597656 -2.007812 C 7.597656 -2.140625 7.558594 -2.238281 7.476562 -2.308594 L 6.878906 -2.890625 C 6.808594 -2.949219 6.71875 -3 6.617188 -3 L 1.699219 -3 C 1.628906 -3 1.578125 -3.019531 1.53125 -3.070312 L 1.378906 -3.25 C 1.359375 -3.277344 1.351562 -3.308594 1.351562 -3.347656 L 1.351562 -3.558594 C 1.351562 -3.628906 1.371094 -3.679688 1.417969 -3.730469 L 1.640625 -3.929688 C 1.699219 -3.980469 1.738281 -4.007812 1.789062 -4.007812 L 7.179688 -4.007812 C 7.257812 -4.007812 7.328125 -4.078125 7.328125 -4.160156 L 7.328125 -4.847656 C 7.328125 -4.929688 7.257812 -5 7.179688 -5 L 1.507812 -5 C 1.390625 -5 1.308594 -4.96875 1.21875 -4.878906 L 0.417969 -4.078125 C 0.359375 -4.019531 0.300781 -3.917969 0.300781 -3.820312 Z M 0.300781 -3.121094 "/></g></g></g></svg>